<svg width="25" height="24" viewBox="0 0 25 24" fill="none" xmlns="http://www.w3.org/2000/svg">
<path d="M11.529 2.5401C11.826 2.37514 12.1602 2.28857 12.5 2.28857C12.8398 2.28857 13.174 2.37514 13.471 2.5401L20.986 6.7141C21.1418 6.80074 21.2716 6.92746 21.362 7.08113C21.4524 7.23479 21.5 7.40983 21.5 7.5881V15.8231C21.4999 16.1797 21.4045 16.5299 21.2235 16.8372C21.0426 17.1446 20.7828 17.3979 20.471 17.5711L13.471 21.4611C13.174 21.6261 12.8398 21.7126 12.5 21.7126C12.1602 21.7126 11.826 21.6261 11.529 21.4611L4.529 17.5711C4.21736 17.398 3.95763 17.1448 3.77671 16.8377C3.5958 16.5305 3.50026 16.1806 3.5 15.8241V7.5881C3.49999 7.40983 3.54764 7.23479 3.63802 7.08113C3.72839 6.92746 3.8582 6.80074 4.014 6.7141L11.529 2.5401Z" stroke="#40AA54" stroke-width="1.5" stroke-linecap="round" stroke-linejoin="round"/>
<path d="M8 4.5L17 9.5V13M6.5 12.328L9.5 14" stroke="#40AA54" stroke-width="1.5" stroke-linecap="round" stroke-linejoin="round"/>
<path d="M3.5 7L12.5 12M12.5 12L21.5 7M12.5 12V22" stroke="#40AA54" stroke-width="1.5" stroke-linejoin="round"/>
</svg>
