<svg width="24" height="24" viewBox="0 0 24 24" fill="none" xmlns="http://www.w3.org/2000/svg">
<path d="M17.2501 18C14.5501 18 13.4776 14.868 12.4403 11.8395C11.4578 8.9685 10.4401 6 8.2501 6C7.73874 6.03007 7.24791 6.21168 6.84014 6.52169C6.43236 6.83169 6.12609 7.25607 5.96035 7.74075L4.5376 7.263C4.57585 7.1505 5.49085 4.5 8.2501 4.5C11.5126 4.5 12.7591 8.14125 13.8601 11.3535C14.7668 14.0002 15.6226 16.5 17.2501 16.5C17.7615 16.4699 18.2523 16.2883 18.6601 15.9783C19.0678 15.6683 19.3741 15.2439 19.5398 14.7593L20.9618 15.237C20.9243 15.3495 20.0093 18 17.2501 18Z" fill="white"/>
<path d="M3 21V12.75H4.5V11.25H3V1.5H1.5V21C1.5 21.3978 1.65804 21.7794 1.93934 22.0607C2.22064 22.342 2.60218 22.5 3 22.5H22.5V21H3Z" fill="white"/>
<path d="M6 11.25H7.5V12.75H6V11.25ZM9 11.25H10.5V12.75H9V11.25ZM15 11.25H16.5V12.75H15V11.25ZM18 11.25H19.5V12.75H18V11.25ZM21 11.25H22.5V12.75H21V11.25Z" fill="white"/>
</svg>
