<svg width="20" height="19" viewBox="0 0 20 19" fill="none" xmlns="http://www.w3.org/2000/svg">
<path fill-rule="evenodd" clip-rule="evenodd" d="M17 17C17 17.829 16.328 18.5 15.5 18.5C14.672 18.5 14 17.829 14 17C14 16.171 14.672 15.5 15.5 15.5C16.328 15.5 17 16.171 17 17ZM7 17C7 17.829 6.328 18.5 5.5 18.5C4.672 18.5 4 17.829 4 17C4 16.171 4.672 15.5 5.5 15.5C6.328 15.5 7 16.171 7 17ZM14.382 11.5H6.764L5.127 5.5H17.382L14.382 11.5ZM19.083 4.448C18.716 3.854 18.08 3.5 17.382 3.5H4.582L3.965 1.237C3.846 0.802 3.451 0.5 3 0.5H1C0.447 0.5 0 0.948 0 1.5C0 2.052 0.447 2.5 1 2.5H2.236L5.035 12.763C5.154 13.198 5.549 13.5 6 13.5H15C15.379 13.5 15.725 13.286 15.895 12.947L19.171 6.394C19.483 5.769 19.45 5.042 19.083 4.448Z" fill="#40AA54"/>
</svg>
