<svg width="22" height="22" viewBox="0 0 22 22" fill="none" xmlns="http://www.w3.org/2000/svg">
<path fill-rule="evenodd" clip-rule="evenodd" d="M20.334 9.66659H12.334V1.66659C12.334 0.929252 11.7367 0.333252 11.0007 0.333252C10.2647 0.333252 9.66732 0.929252 9.66732 1.66659V9.66659H1.66732C0.931318 9.66659 0.333984 10.2626 0.333984 10.9999C0.333984 11.7373 0.931318 12.3333 1.66732 12.3333H9.66732V20.3333C9.66732 21.0706 10.2647 21.6666 11.0007 21.6666C11.7367 21.6666 12.334 21.0706 12.334 20.3333V12.3333H20.334C21.07 12.3333 21.6673 11.7373 21.6673 10.9999C21.6673 10.2626 21.07 9.66659 20.334 9.66659Z" fill="#777777"/>
</svg>
