<svg width="25" height="24" viewBox="0 0 25 24" fill="none" xmlns="http://www.w3.org/2000/svg">
<g clip-path="url(#clip0_292_3846)">
<path d="M7.8125 9.75C7.8125 10.0312 7.75781 10.2969 7.64844 10.5469C7.53906 10.7969 7.39062 11.0156 7.20312 11.2031C7.01562 11.3906 6.79688 11.5391 6.54688 11.6484C6.29688 11.7578 6.03125 11.8125 5.75 11.8125C5.46875 11.8125 5.20312 11.7578 4.95312 11.6484C4.70312 11.5391 4.48438 11.3906 4.29688 11.2031C4.10938 11.0156 3.96094 10.7969 3.85156 10.5469C3.74219 10.2969 3.6875 10.0312 3.6875 9.75C3.6875 9.46875 3.74219 9.20312 3.85156 8.95312C3.96094 8.70312 4.10938 8.48438 4.29688 8.29688C4.48438 8.10938 4.70312 7.96094 4.95312 7.85156C5.20312 7.74219 5.46875 7.6875 5.75 7.6875C6.03125 7.6875 6.29688 7.74219 6.54688 7.85156C6.79688 7.96094 7.01562 8.10938 7.20312 8.29688C7.39062 8.48438 7.53906 8.70312 7.64844 8.95312C7.75781 9.20312 7.8125 9.46875 7.8125 9.75ZM5.75 10.6875C6.00781 10.6875 6.22656 10.5977 6.40625 10.418C6.58594 10.2383 6.67969 10.0156 6.6875 9.75C6.6875 9.49219 6.59766 9.27344 6.41797 9.09375C6.23828 8.91406 6.01562 8.82031 5.75 8.8125C5.49219 8.8125 5.27344 8.90234 5.09375 9.08203C4.91406 9.26172 4.82031 9.48438 4.8125 9.75C4.8125 10.0078 4.90234 10.2266 5.08203 10.4062C5.26172 10.5859 5.48438 10.6797 5.75 10.6875ZM11.75 12.1875C12.0312 12.1875 12.2969 12.2422 12.5469 12.3516C12.7969 12.4609 13.0156 12.6094 13.2031 12.7969C13.3906 12.9844 13.5391 13.2031 13.6484 13.4531C13.7578 13.7031 13.8125 13.9688 13.8125 14.25C13.8125 14.5312 13.7578 14.7969 13.6484 15.0469C13.5391 15.2969 13.3906 15.5156 13.2031 15.7031C13.0156 15.8906 12.7969 16.0391 12.5469 16.1484C12.2969 16.2578 12.0312 16.3125 11.75 16.3125C11.4688 16.3125 11.2031 16.2578 10.9531 16.1484C10.7031 16.0391 10.4844 15.8906 10.2969 15.7031C10.1094 15.5156 9.96094 15.2969 9.85156 15.0469C9.74219 14.7969 9.6875 14.5312 9.6875 14.25C9.6875 13.9688 9.74219 13.7031 9.85156 13.4531C9.96094 13.2031 10.1094 12.9844 10.2969 12.7969C10.4844 12.6094 10.7031 12.4609 10.9531 12.3516C11.2031 12.2422 11.4688 12.1875 11.75 12.1875ZM11.75 15.1875C12.0078 15.1875 12.2266 15.0977 12.4062 14.918C12.5859 14.7383 12.6797 14.5156 12.6875 14.25C12.6875 13.9922 12.5977 13.7734 12.418 13.5938C12.2383 13.4141 12.0156 13.3203 11.75 13.3125C11.4922 13.3125 11.2734 13.4023 11.0938 13.582C10.9141 13.7617 10.8203 13.9844 10.8125 14.25C10.8125 14.5078 10.9023 14.7266 11.082 14.9062C11.2617 15.0859 11.4844 15.1797 11.75 15.1875ZM10.3672 7.5H11.6328L7.13281 16.5H5.86719L10.3672 7.5ZM17 4.5L24.5 12L17 19.5H0.5V4.5H17ZM16.3789 18L22.3789 12L16.3789 6H2V18H16.3789ZM18.5 11.25C18.7031 11.25 18.8789 11.3242 19.0273 11.4727C19.1758 11.6211 19.25 11.7969 19.25 12C19.25 12.2031 19.1758 12.3789 19.0273 12.5273C18.8789 12.6758 18.7031 12.75 18.5 12.75C18.2969 12.75 18.1211 12.6758 17.9727 12.5273C17.8242 12.3789 17.75 12.2031 17.75 12C17.75 11.7969 17.8242 11.6211 17.9727 11.4727C18.1211 11.3242 18.2969 11.25 18.5 11.25Z" fill="white"/>
</g>
<defs>
<clipPath id="clip0_292_3846">
<rect width="24" height="24" fill="white" transform="translate(0.5)"/>
</clipPath>
</defs>
</svg>
