<svg width="23" height="21" viewBox="0 0 23 21" fill="none" xmlns="http://www.w3.org/2000/svg">
<path d="M5.5 8H9.5" stroke="white" stroke-width="1.5" stroke-linecap="round" stroke-linejoin="round"/>
<path d="M21.498 10.5C21.498 10.423 21.5 9.967 21.498 9.935C21.462 9.434 21.033 9.035 20.493 9.002C20.458 9 20.417 9 20.333 9H17.731C15.946 9 14.5 10.343 14.5 12C14.5 13.657 15.947 15 17.73 15H20.333C20.417 15 20.458 15 20.493 14.998C21.033 14.965 21.463 14.566 21.498 14.065C21.5 14.033 21.5 13.577 21.5 13.5" stroke="white" stroke-width="1.5" stroke-linecap="round"/>
<path d="M17.5 13C18.0523 13 18.5 12.5523 18.5 12C18.5 11.4477 18.0523 11 17.5 11C16.9477 11 16.5 11.4477 16.5 12C16.5 12.5523 16.9477 13 17.5 13Z" fill="white"/>
<path d="M9.5 20H12.5C16.271 20 18.157 20 19.328 18.828C20.137 18.02 20.388 16.872 20.465 15M20.465 9.00004C20.387 7.12804 20.137 5.98004 19.328 5.17204C18.157 4.00004 16.271 4.00004 12.5 4.00004H9.5C5.729 4.00004 3.843 4.00004 2.672 5.17204C1.5 6.34304 1.5 8.22904 1.5 12C1.5 15.771 1.5 17.657 2.672 18.828C3.325 19.482 4.2 19.771 5.5 19.898M5.5 4.00004L9.235 1.52304C9.76026 1.18138 10.3734 0.999512 11 0.999512C11.6266 0.999512 12.2397 1.18138 12.765 1.52304L16.5 4.00004" stroke="white" stroke-width="1.5" stroke-linecap="round"/>
</svg>
