<svg width="21" height="22" viewBox="0 0 21 22" fill="none" xmlns="http://www.w3.org/2000/svg">
<path d="M9.529 1.5401C9.82605 1.37514 10.1602 1.28857 10.5 1.28857C10.8398 1.28857 11.174 1.37514 11.471 1.5401L18.986 5.7141C19.1418 5.80074 19.2716 5.92746 19.362 6.08113C19.4524 6.23479 19.5 6.40983 19.5 6.5881V14.8231C19.4999 15.1797 19.4045 15.5299 19.2235 15.8372C19.0426 16.1446 18.7828 16.3979 18.471 16.5711L11.471 20.4611C11.174 20.6261 10.8398 20.7126 10.5 20.7126C10.1602 20.7126 9.82605 20.6261 9.529 20.4611L2.529 16.5711C2.21736 16.398 1.95763 16.1448 1.77671 15.8377C1.5958 15.5305 1.50026 15.1806 1.5 14.8241V6.5881C1.49999 6.40983 1.54764 6.23479 1.63802 6.08113C1.72839 5.92746 1.8582 5.80074 2.014 5.7141L9.529 1.5401Z" stroke="white" stroke-width="1.5" stroke-linecap="round" stroke-linejoin="round"/>
<path d="M6 3.5L15 8.5V12M4.5 11.328L7.5 13" stroke="white" stroke-width="1.5" stroke-linecap="round" stroke-linejoin="round"/>
<path d="M1.5 6L10.5 11M10.5 11L19.5 6M10.5 11V21" stroke="white" stroke-width="1.5" stroke-linejoin="round"/>
</svg>
