<svg width="24" height="22" viewBox="0 0 24 22" fill="none" xmlns="http://www.w3.org/2000/svg">
<path d="M0.239063 0.28425C-0.009375 0.420189 0.0046875 -0.0298119 0 8.61863C0 13.6249 0.01875 16.7093 0.046875 16.7843C0.0703125 16.8499 0.145313 16.9389 0.220313 16.9858C0.342188 17.0655 0.604688 17.0702 4.86094 17.0843L9.375 17.0936V19.278V21.4624L9.53438 21.6218L9.69375 21.7811H16.6594C24.2391 21.7811 23.8219 21.7952 23.9438 21.5233C24.0328 21.3311 24.0234 18.678 23.9344 18.5046C23.8172 18.2843 23.5453 18.2093 23.3016 18.3311C23.0813 18.4483 23.0625 18.5561 23.0625 19.7421V20.8436H16.6875H10.3125V11.9374V3.03113H16.6875H23.0625V8.82019C23.0625 13.7421 23.0719 14.6327 23.1281 14.7452C23.2922 15.0546 23.7703 15.0546 23.9344 14.7452C24.0328 14.5483 24.0328 2.52956 23.9344 2.33269C23.8125 2.09831 23.7656 2.09363 21.7031 2.09363H19.7812V1.34363C19.7812 0.518625 19.7484 0.378 19.5234 0.274876C19.3359 0.185814 0.398438 0.195189 0.239063 0.28425ZM4.64062 2.403V3.64988L4.8 3.80925C4.96875 3.978 5.12813 4.01081 5.31094 3.91238C5.36719 3.88425 5.59688 3.70613 5.82188 3.51394C6.04219 3.32644 6.23438 3.17175 6.24375 3.17175C6.25781 3.17175 6.50625 3.34988 6.79688 3.57019C7.20938 3.87956 7.36406 3.96863 7.48125 3.96863C7.62656 3.96863 7.81406 3.84206 8.61094 3.20925C8.65313 3.17644 8.77031 3.24206 9.01875 3.43425L9.37031 3.71081L9.375 9.93113V16.1561H5.15625H0.9375V8.65613V1.15613H2.78906H4.64062V2.403ZM9.375 1.8405V2.52488L9.13125 2.33269C8.70469 1.9905 8.62031 2.00456 7.97344 2.5155C7.71563 2.72175 7.49063 2.8905 7.47656 2.8905C7.4625 2.8905 7.22344 2.72175 6.95156 2.5155C6.675 2.30925 6.40313 2.12644 6.34219 2.11238C6.17813 2.07019 6.02813 2.12175 5.8125 2.30456C5.70469 2.39363 5.60625 2.46863 5.59688 2.46863C5.5875 2.46863 5.57812 2.17331 5.57812 1.81238V1.15613H7.47656H9.375V1.8405ZM18.8438 1.62488V2.09363H14.5781H10.3125V1.62488V1.15613H14.5781H18.8438V1.62488Z" fill="#40AA54"/>
<path d="M3.07012 10.54C2.9248 10.6197 2.01543 11.5244 1.94043 11.665C1.77168 11.9885 1.99199 12.3588 2.3623 12.3588C2.42324 12.3588 2.5498 12.3072 2.64355 12.2416L2.8123 12.1291V13.3432C2.8123 14.6557 2.82637 14.7541 3.05137 14.8713C3.21543 14.9557 3.34668 14.9557 3.51074 14.8713C3.73574 14.7541 3.7498 14.6557 3.7498 13.3432V12.1291L3.91855 12.2416C4.19043 12.4244 4.49043 12.3729 4.62168 12.1197C4.77168 11.8291 4.72011 11.7213 4.10605 11.1025C3.50605 10.4885 3.33262 10.3947 3.07012 10.54Z" fill="#40AA54"/>
<path d="M6.82012 10.54C6.6748 10.6197 5.76543 11.5244 5.69043 11.665C5.52168 11.9885 5.74199 12.3588 6.1123 12.3588C6.17324 12.3588 6.2998 12.3072 6.39355 12.2416L6.5623 12.1291V13.3432C6.5623 14.6557 6.57637 14.7541 6.80137 14.8713C6.96543 14.9557 7.09668 14.9557 7.26074 14.8713C7.48574 14.7541 7.4998 14.6557 7.4998 13.3432V12.1291L7.66855 12.2416C7.94043 12.4244 8.24043 12.3729 8.37168 12.1197C8.52168 11.8291 8.47011 11.7213 7.85605 11.1025C7.25605 10.4885 7.08262 10.3947 6.82012 10.54Z" fill="#40AA54"/>
<path d="M12.225 4.10415C12.0984 4.21665 12.0703 4.2729 12.0703 4.43696C12.0703 4.60102 12.0984 4.65727 12.225 4.76977C12.3609 4.89165 12.4125 4.90571 12.6797 4.90571H12.9797L12.9938 6.64477L13.0078 8.38383L13.1672 8.52446C13.3031 8.64633 13.35 8.66508 13.5188 8.64165C13.6453 8.6229 13.7484 8.57133 13.8141 8.49165C13.9219 8.36977 13.9219 8.36508 13.9219 6.6354V4.90571H14.2031C14.6484 4.90571 14.8594 4.75571 14.8594 4.43696C14.8594 4.24008 14.7891 4.1229 14.625 4.03852C14.5172 3.98227 14.2828 3.96821 13.4344 3.96821H12.375L12.225 4.10415Z" fill="#40AA54"/>
<path d="M16.1437 4.05781C16.05 4.11406 15.9703 4.22187 15.9234 4.35312C15.7922 4.70469 14.9062 8.075 14.9062 8.20625C14.9062 8.38437 14.9812 8.50156 15.1406 8.58594C15.4828 8.76406 15.7453 8.58125 15.8812 8.07031L15.9703 7.74219L16.4156 7.72812L16.8609 7.71406L16.9453 8.03281C16.9922 8.20625 17.0578 8.39375 17.0953 8.45C17.1703 8.56719 17.3484 8.65625 17.5078 8.65625C17.6531 8.65625 17.8922 8.45 17.925 8.29062C17.9437 8.20625 17.775 7.50781 17.4187 6.20469C16.8375 4.04844 16.8281 4.02969 16.4719 3.9875C16.3406 3.96875 16.2469 3.99219 16.1437 4.05781ZM16.5937 6.74375C16.5937 6.76719 16.5094 6.78125 16.4062 6.78125C16.2797 6.78125 16.2281 6.7625 16.2422 6.72031C16.2516 6.69219 16.2937 6.5375 16.3406 6.38281L16.4156 6.10156L16.5047 6.40625C16.5516 6.575 16.5891 6.725 16.5937 6.74375Z" fill="#40AA54"/>
<path d="M19.1157 4.0437C18.7829 4.22182 18.811 4.41401 19.3219 5.44526L19.7579 6.31245L19.3219 7.17964C18.8063 8.21557 18.7782 8.40776 19.1251 8.58589C19.4719 8.76401 19.6501 8.63276 20.011 7.91557L20.2876 7.36714L20.5735 7.93901C20.7891 8.37964 20.8923 8.52964 20.9954 8.58589C21.2016 8.68901 21.3563 8.67026 21.5157 8.52495C21.7735 8.29057 21.7594 8.21557 21.2626 7.21245L20.8126 6.31245L21.2626 5.41245C21.7594 4.40932 21.7735 4.33432 21.5157 4.09526C21.3563 3.95464 21.2016 3.93589 20.9954 4.03901C20.8923 4.09526 20.7891 4.24526 20.5735 4.68589L20.2876 5.25776L20.011 4.70932C19.6548 3.99682 19.4626 3.85151 19.1157 4.0437Z" fill="#40AA54"/>
<path d="M11.4891 9.65938C11.175 9.83281 11.1844 10.3297 11.5078 10.475C11.5969 10.5172 12.1922 10.5312 13.6875 10.5312C15.9 10.5312 15.9375 10.5266 16.0594 10.2922C16.186 10.0484 16.0969 9.75313 15.8672 9.65C15.6844 9.56563 11.6438 9.575 11.4891 9.65938Z" fill="#40AA54"/>
<path d="M17.536 9.65879C17.2219 9.83223 17.2313 10.3291 17.5547 10.4744C17.7281 10.5541 21.6938 10.5541 21.8672 10.4744C22.0031 10.4135 22.125 10.2166 22.125 10.0619C22.125 9.90723 22.0031 9.71035 21.8672 9.64941C21.6844 9.56504 17.6906 9.57441 17.536 9.65879Z" fill="#40AA54"/>
<path d="M11.4891 11.534C11.2547 11.6652 11.2547 11.684 11.25 13.798C11.25 15.9262 11.2547 15.9684 11.4891 16.0902C11.6859 16.1887 21.6891 16.1887 21.8859 16.0902C22.1203 15.9684 22.125 15.9215 22.125 13.8121C22.125 11.7027 22.1203 11.6559 21.8859 11.534C21.6984 11.4402 11.6625 11.4355 11.4891 11.534ZM13.125 12.8746V13.3434H12.6562H12.1875V12.8746V12.4059H12.6562H13.125V12.8746ZM21.1875 12.8746V13.3434H17.625H14.0625V12.8746V12.4059H17.625H21.1875V12.8746ZM13.125 14.7496V15.2184H12.6562H12.1875V14.7496V14.2809H12.6562H13.125V14.7496ZM21.1875 14.7496V15.2184H17.625H14.0625V14.7496V14.2809H17.625H21.1875V14.7496Z" fill="#40AA54"/>
<path d="M23.3014 16.2219C22.8936 16.4469 23.067 17.0938 23.5311 17.0938C23.7702 17.0938 23.9999 16.8641 23.9999 16.6297C23.9999 16.2781 23.6108 16.0484 23.3014 16.2219Z" fill="#40AA54"/>
<path d="M11.489 17.1594C11.2687 17.2813 11.1937 17.5531 11.3155 17.7922C11.4327 18.0172 11.5312 18.0312 12.8952 18.0312C14.2687 18.0312 14.3671 18.0172 14.4749 17.7734C14.5827 17.5344 14.5077 17.2719 14.2921 17.1594C14.1093 17.0656 11.6577 17.0656 11.489 17.1594Z" fill="#40AA54"/>
<path d="M15.9422 17.1588C15.6281 17.3322 15.6375 17.8291 15.961 17.9744C16.1344 18.0541 21.6938 18.0541 21.8672 17.9744C22.0031 17.9135 22.125 17.7166 22.125 17.5619C22.125 17.4072 22.0031 17.2104 21.8672 17.1494C21.6797 17.065 16.0969 17.0744 15.9422 17.1588Z" fill="#40AA54"/>
<path d="M11.4891 19.0338C11.175 19.2072 11.1844 19.7041 11.5078 19.8494C11.6813 19.9291 17.2406 19.9291 17.4141 19.8494C17.55 19.7885 17.6719 19.5916 17.6719 19.4369C17.6719 19.2822 17.55 19.0854 17.4141 19.0244C17.2266 18.94 11.6438 18.9494 11.4891 19.0338Z" fill="#40AA54"/>
<path d="M19.0827 19.0344C18.8624 19.1563 18.7874 19.4281 18.9093 19.6672C19.0265 19.8922 19.1249 19.9062 20.489 19.9062C21.8624 19.9062 21.9609 19.8922 22.0687 19.6484C22.1765 19.4094 22.1015 19.1469 21.8859 19.0344C21.703 18.9406 19.2515 18.9406 19.0827 19.0344Z" fill="#40AA54"/>
</svg>
