<svg width="24" height="16" viewBox="0 0 24 16" fill="none" xmlns="http://www.w3.org/2000/svg">
<path d="M12.7733 1.625C8.31084 2.15938 4.60302 2.61406 4.52334 2.63281C4.30302 2.68906 4.04052 2.83438 3.85302 3.00781L3.6749 3.16719L2.38584 3.18125L1.10146 3.19531L0.867087 3.32188C0.548337 3.48594 0.295212 3.75313 0.145212 4.0625L0.0233366 4.32031L0.00927412 5.73594C-0.00947588 7.49844 -0.0235384 7.46563 0.646774 7.57344C1.26552 7.67188 1.7249 8.00938 1.98271 8.55313C2.24521 9.10625 2.19365 9.70625 1.84677 10.2313C1.57021 10.6438 1.20927 10.8688 0.628024 10.9766C0.356149 11.0328 0.224899 11.0797 0.140524 11.1688L0.0233366 11.2813V12.7484V14.2109L0.149899 14.4781C0.313962 14.825 0.632712 15.1391 0.974899 15.275L1.24209 15.3828H9.84365H18.4452L18.7593 15.2281C19.3874 14.9188 19.6405 14.4641 19.6405 13.6438C19.6405 13.2922 19.6593 13.1469 19.7015 13.1328C19.7296 13.1188 20.3905 13.0344 21.164 12.9453C21.9374 12.8516 22.6452 12.7672 22.7343 12.7484C23.3671 12.6359 23.8921 12.0828 23.9765 11.4406C24.0046 11.2438 23.7843 9.10156 23.6905 8.65156C23.639 8.39844 23.4749 8.30938 22.9968 8.27656C22.2608 8.22031 21.7921 7.925 21.4968 7.34375C21.2343 6.81875 21.2296 6.34531 21.4733 5.825C21.6937 5.35625 22.1671 4.99063 22.7202 4.85938C23.2124 4.74688 23.2265 4.67188 23.0343 3.05469C22.8983 1.93438 22.8562 1.70469 22.753 1.49375C22.6077 1.19844 22.3265 0.912501 22.0312 0.767188C21.6093 0.560939 21.5483 0.565626 12.7733 1.625ZM21.7452 1.69531C21.9327 1.85469 21.9655 1.97656 22.078 2.96094C22.1296 3.425 22.1858 3.84688 22.1952 3.90313C22.214 3.9875 22.1624 4.02969 21.8624 4.175C21.2202 4.49375 20.714 5.07031 20.4796 5.75C20.339 6.15781 20.3296 6.91719 20.4562 7.29688C20.8077 8.33281 21.6187 9.05 22.5983 9.19063C22.8515 9.22813 22.814 9.09219 22.9733 10.4469C23.1327 11.7969 23.1749 11.75 21.4499 11.9656C20.7749 12.05 20.0952 12.1297 19.9358 12.1484L19.6405 12.1813V11.75C19.6405 11.5156 19.6171 11.2813 19.5937 11.2297C19.5233 11.1031 19.3312 11.0188 19.0265 10.9813C18.6468 10.9344 18.253 10.7281 17.9858 10.4422C17.353 9.7625 17.3483 8.80156 17.9765 8.10313C18.2343 7.81719 18.5858 7.63906 19.0546 7.55938C19.3546 7.50781 19.4483 7.47031 19.5327 7.37188C19.6405 7.24531 19.6405 7.23594 19.6405 5.82031C19.6405 4.49375 19.6358 4.37656 19.5421 4.13281C19.4249 3.81875 19.1015 3.47188 18.7733 3.3125L18.539 3.19531L13.289 3.17188C10.4015 3.15781 8.08115 3.13906 8.13271 3.13438C9.01396 3.00313 21.0233 1.5875 21.2671 1.58281C21.5624 1.57813 21.6187 1.59219 21.7452 1.69531ZM14.2968 7.04844V9.9875L14.4233 10.1188C14.6765 10.3859 15.1311 10.2406 15.2061 9.87031C15.2202 9.78594 15.2343 8.45938 15.2343 6.91719V4.10938H16.7624C18.0936 4.10938 18.3046 4.11875 18.4218 4.18438C18.689 4.34375 18.703 4.41875 18.703 5.6V6.67813L18.5296 6.71094C18.4358 6.725 18.2296 6.80469 18.0749 6.875C17.3718 7.2125 16.8233 7.89219 16.6358 8.65625C16.5515 9.00781 16.5608 9.65 16.6593 9.99219C16.903 10.8313 17.5968 11.5438 18.4171 11.7969L18.6796 11.8813L18.6936 12.9266C18.7077 14.075 18.689 14.1688 18.4499 14.3422C18.3093 14.4406 18.2718 14.4453 16.7718 14.4594L15.2343 14.4734V14.0609C15.2343 13.8359 15.2108 13.5688 15.1874 13.475C15.089 13.1281 14.714 12.9969 14.4515 13.2219C14.3249 13.3297 14.3202 13.3531 14.2968 13.8922L14.2733 14.4453H7.82802C1.69209 14.4453 1.37334 14.4406 1.25146 14.3609C1.17646 14.3141 1.07802 14.2109 1.03115 14.1266C0.946774 13.9906 0.937399 13.8828 0.937399 12.9359V11.9L1.11084 11.8438C2.31084 11.4781 3.09365 10.4609 3.09365 9.26563C3.09365 8.13125 2.30615 7.06719 1.22334 6.73438L0.960837 6.65L0.946774 5.65156C0.942087 5.09844 0.946774 4.59688 0.960837 4.53594C0.979587 4.47031 1.06396 4.34844 1.15302 4.26406L1.31709 4.10938H7.80927H14.2968V7.04844Z" fill="white"/>
<path d="M7.67315 5.7076C7.62627 5.73573 7.36846 6.20448 7.09658 6.74823C6.82002 7.29667 6.59502 7.74667 6.59033 7.75136C6.58565 7.75604 6.09346 7.83104 5.49346 7.9201C4.55596 8.06073 4.38252 8.09823 4.28877 8.18729C4.15283 8.31386 4.10596 8.50604 4.1669 8.66073C4.19033 8.72636 4.56065 9.12479 4.98721 9.55136L5.76533 10.3201L5.58252 11.3982C5.41846 12.3685 5.4044 12.4904 5.46533 12.631C5.54971 12.8326 5.80752 12.9498 6.00908 12.8795C6.08877 12.8514 6.55283 12.617 7.04033 12.3592L7.93096 11.8904L8.64346 12.2607C9.97471 12.9545 9.92315 12.931 10.0731 12.8982C10.2747 12.856 10.4528 12.6592 10.4528 12.481C10.4528 12.4014 10.3778 11.881 10.2841 11.3279L10.1153 10.3201L10.9169 9.52323C11.7044 8.73573 11.7185 8.72167 11.7185 8.52479C11.7185 8.30448 11.5825 8.11698 11.381 8.07011C11.2825 8.05135 9.36065 7.76542 9.3044 7.76542C9.29033 7.76542 9.06065 7.32479 8.78877 6.78573C8.51221 6.22792 8.2544 5.77323 8.19346 5.73104C8.07627 5.64667 7.79971 5.63261 7.67315 5.7076ZM8.6669 8.53417C8.7419 8.60448 8.95283 8.65604 9.47783 8.73573C9.8669 8.79667 10.195 8.85292 10.2044 8.86229C10.2138 8.87167 9.9794 9.12011 9.68408 9.41073C9.2294 9.86073 9.14033 9.96854 9.14033 10.0857C9.14033 10.1607 9.1919 10.5217 9.25283 10.8826C9.31377 11.2435 9.36065 11.5435 9.35127 11.5529C9.34658 11.5623 9.05596 11.417 8.70908 11.2342C8.32002 11.0326 8.02002 10.906 7.93096 10.906C7.8419 10.906 7.54658 11.0326 7.1669 11.2342C6.82471 11.4123 6.53877 11.5529 6.5294 11.5435C6.52002 11.5342 6.5669 11.2107 6.63252 10.8217C6.72158 10.3014 6.74033 10.0857 6.70283 9.99198C6.6794 9.92636 6.42627 9.64979 6.14033 9.37323C5.8544 9.10136 5.6294 8.86698 5.63877 8.86229C5.64815 8.85292 5.95752 8.80135 6.32783 8.7451C6.70283 8.69354 7.06377 8.61854 7.1294 8.58104C7.22315 8.53417 7.34971 8.33729 7.59815 7.84979L7.93565 7.18417L8.24971 7.81229C8.42315 8.15917 8.61065 8.48729 8.6669 8.53417Z" fill="white"/>
<path d="M14.4421 11.3562C14.1796 11.5765 14.2733 12.0171 14.6061 12.1249C14.9296 12.2327 15.2624 11.9281 15.1967 11.5812C15.1358 11.2531 14.7139 11.1265 14.4421 11.3562Z" fill="white"/>
</svg>
