<svg width="24" height="24" viewBox="0 0 24 24" fill="none" xmlns="http://www.w3.org/2000/svg">
<path d="M8.77477 0.801561C8.25914 0.857811 7.38727 1.05 6.86695 1.22344C6.26695 1.425 5.11383 2.01094 4.5982 2.38125C3.30914 3.3 2.40445 4.35469 1.7107 5.74219C1.19039 6.7875 0.913829 7.725 0.796641 8.85937C0.346641 13.2141 3.19664 17.3203 7.45289 18.4406C8.32477 18.6703 8.72789 18.7219 9.74977 18.7219C10.7482 18.7219 11.142 18.6797 11.9763 18.4641C13.2232 18.1453 14.4748 17.5125 15.4685 16.6969C15.6607 16.5375 15.8295 16.4062 15.8435 16.4062C15.8576 16.4062 16.0779 16.6172 16.331 16.8703L16.7951 17.3391L16.6591 17.6344C16.542 17.8922 16.5232 17.9812 16.5232 18.375C16.5232 18.7641 16.542 18.8578 16.6591 19.125C16.7857 19.4016 16.9498 19.5844 18.5107 21.1547C20.1045 22.7578 20.2498 22.8937 20.5732 23.0531C20.906 23.2172 20.9482 23.2266 21.3701 23.2266C21.7779 23.2266 21.8482 23.2125 22.1341 23.0766C22.5701 22.8703 22.842 22.6078 23.0529 22.1812C23.217 21.8438 23.2263 21.8016 23.2263 21.3797C23.2263 20.9859 23.2076 20.8922 23.0904 20.625C22.9638 20.3484 22.7998 20.1703 21.2623 18.6187C20.3295 17.6812 19.4857 16.8703 19.3826 16.8094C18.8951 16.5234 18.267 16.4719 17.681 16.6687L17.3248 16.7859L16.8654 16.3266C16.6123 16.0734 16.406 15.8578 16.406 15.8437C16.406 15.8297 16.5373 15.6609 16.6966 15.4687C17.2873 14.7469 17.9998 13.5234 17.9998 13.2234C17.9998 13.0219 17.8591 12.8719 17.6576 12.8719C17.442 12.8719 17.3529 12.9516 17.2123 13.2656C16.8748 14.0391 16.2091 14.9578 15.5107 15.6375C14.7841 16.3359 14.2826 16.6969 13.4107 17.1281C10.3591 18.6609 6.67477 18.1266 4.15758 15.7922C1.19508 13.0453 0.646641 8.63906 2.84977 5.25C4.42008 2.83125 7.21383 1.3875 10.0779 1.51406C10.4248 1.53281 10.9123 1.57969 11.156 1.62187C11.6623 1.70625 12.5248 1.95937 12.9185 2.13281C13.256 2.28281 13.4248 2.28281 13.5701 2.13281C13.8373 1.87031 13.6685 1.62187 13.0638 1.3875C11.6529 0.84375 10.2326 0.651562 8.77477 0.801561ZM18.8857 17.3906C18.9795 17.4375 19.8045 18.2344 20.7232 19.1578C22.4857 20.9297 22.4998 20.9484 22.4998 21.375C22.4998 21.7687 22.242 22.1812 21.8716 22.3687C21.6091 22.5094 21.1451 22.5094 20.8826 22.3734C20.7748 22.3125 19.992 21.5672 19.0263 20.5922C17.2638 18.8203 17.2498 18.8016 17.2498 18.375C17.2498 17.8828 17.6201 17.4187 18.117 17.2922C18.3185 17.2406 18.6888 17.2875 18.8857 17.3906Z" fill="#40AA54"/>
<path d="M17.1563 1.57042C15.511 1.83292 14.0625 2.90635 13.2938 4.43917C12.3 6.42667 12.7032 8.85948 14.2969 10.4532C15.9094 12.061 18.2813 12.4501 20.3204 11.4376C21.9 10.6548 22.95 9.1876 23.2032 7.42979C23.3204 6.58135 23.1422 5.18448 22.8797 4.9501C22.7485 4.83292 22.5188 4.84229 22.3829 4.96885C22.2422 5.10479 22.2375 5.17979 22.3641 5.65323C22.5 6.1501 22.5141 7.26573 22.3922 7.75323C22.1766 8.60635 21.8063 9.26729 21.1875 9.89073C20.5454 10.5423 19.875 10.9267 19.0032 11.1423C18.5438 11.2548 17.4844 11.2548 17.0157 11.1423C15.3094 10.7298 14.0344 9.45948 13.6079 7.75323C13.4954 7.30792 13.4954 6.19229 13.6079 5.74698C13.8188 4.90792 14.2079 4.21417 14.8125 3.60479C15.6235 2.78448 16.5985 2.33448 17.7188 2.26417C18.5532 2.2126 19.4954 2.42354 20.1704 2.8126C20.4797 2.99073 20.5594 3.01885 20.7329 3.00479C20.8688 2.99542 21 2.82667 21 2.65323C21 2.45167 20.85 2.31573 20.3344 2.05792C19.3641 1.57042 18.2485 1.40167 17.1563 1.57042Z" fill="#40AA54"/>
<path d="M22.3507 2.63418C22.3132 2.66699 21.2585 3.8248 20.0163 5.20293C18.7694 6.58105 17.7288 7.73887 17.696 7.77168C17.6538 7.81855 17.471 7.62637 16.8335 6.85762C16.3882 6.32324 15.971 5.85449 15.9053 5.82168C15.76 5.74199 15.596 5.77949 15.4694 5.91543C15.2725 6.13105 15.31 6.20137 16.3928 7.4998C17.035 8.27324 17.4475 8.73262 17.5178 8.74668C17.5741 8.76543 17.6725 8.76543 17.7335 8.74668C17.846 8.71855 22.871 3.20606 22.9319 3.04668C22.9741 2.92481 22.8897 2.68106 22.7819 2.6248C22.66 2.55918 22.4397 2.56855 22.3507 2.63418Z" fill="#40AA54"/>
<path d="M3.86719 6.11738L3.75 6.22988V9.7502V13.2705L3.86719 13.383C4.01719 13.5377 4.23281 13.5377 4.38281 13.383L4.5 13.2705V9.7502V6.22988L4.38281 6.11738C4.3125 6.04238 4.21406 6.0002 4.125 6.0002C4.03594 6.0002 3.9375 6.04238 3.86719 6.11738Z" fill="#40AA54"/>
<path d="M5.36719 6.11738L5.25 6.22988V9.7502V13.2705L5.36719 13.383C5.51719 13.5377 5.73281 13.5377 5.88281 13.383L6 13.2705V9.7502V6.22988L5.88281 6.11738C5.8125 6.04238 5.71406 6.0002 5.625 6.0002C5.53594 6.0002 5.4375 6.04238 5.36719 6.11738Z" fill="#40AA54"/>
<path d="M7.61719 6.11738L7.5 6.22988V9.7502V13.2705L7.61719 13.383C7.76719 13.5377 7.98281 13.5377 8.13281 13.383L8.25 13.2705V9.7502V6.22988L8.13281 6.11738C8.0625 6.04238 7.96406 6.0002 7.875 6.0002C7.78594 6.0002 7.6875 6.04238 7.61719 6.11738Z" fill="#40AA54"/>
<path d="M9.86719 6.11738L9.75 6.22988V9.7502V13.2705L9.86719 13.383C10.0172 13.5377 10.2328 13.5377 10.3828 13.383L10.5 13.2705V9.7502V6.22988L10.3828 6.11738C10.3125 6.04238 10.2141 6.0002 10.125 6.0002C10.0359 6.0002 9.9375 6.04238 9.86719 6.11738Z" fill="#40AA54"/>
<path d="M11.3672 6.11738L11.25 6.22988V9.7502V13.2705L11.3672 13.383C11.5172 13.5377 11.7328 13.5377 11.8828 13.383L12 13.2705V9.7502V6.22988L11.8828 6.11738C11.8125 6.04238 11.7141 6.0002 11.625 6.0002C11.5359 6.0002 11.4375 6.04238 11.3672 6.11738Z" fill="#40AA54"/>
<path d="M12.8672 10.6172L12.75 10.7297V12V13.2703L12.8672 13.3828C12.9375 13.4578 13.0359 13.5 13.125 13.5C13.2141 13.5 13.3125 13.4578 13.3828 13.3828L13.5 13.2703V12V10.7297L13.3828 10.6172C13.3125 10.5422 13.2141 10.5 13.125 10.5C13.0359 10.5 12.9375 10.5422 12.8672 10.6172Z" fill="#40AA54"/>
<path d="M14.3672 12.1172C14.2547 12.225 14.25 12.2625 14.25 12.75C14.25 13.2375 14.2547 13.275 14.3672 13.3828C14.4375 13.4578 14.5359 13.5 14.625 13.5C14.7141 13.5 14.8125 13.4578 14.8828 13.3828C14.9953 13.275 15 13.2375 15 12.75C15 12.2625 14.9953 12.225 14.8828 12.1172C14.8125 12.0422 14.7141 12 14.625 12C14.5359 12 14.4375 12.0422 14.3672 12.1172Z" fill="#40AA54"/>
</svg>
