<svg width="24" height="16" viewBox="0 0 24 16" fill="none" xmlns="http://www.w3.org/2000/svg">
<path d="M12.7738 1.625C8.31133 2.15938 4.60351 2.61406 4.52383 2.63281C4.30351 2.68906 4.04101 2.83438 3.85351 3.00781L3.67539 3.16719L2.38632 3.18125L1.10195 3.19531L0.867575 3.32188C0.548825 3.48594 0.2957 3.75313 0.1457 4.0625L0.0238249 4.32031L0.0097624 5.73594C-0.0089876 7.49844 -0.0230501 7.46563 0.647262 7.57344C1.26601 7.67188 1.72539 8.00938 1.9832 8.55313C2.2457 9.10625 2.19414 9.70625 1.84726 10.2313C1.5707 10.6438 1.20976 10.8688 0.628512 10.9766C0.356637 11.0328 0.225387 11.0797 0.141012 11.1688L0.0238249 11.2813V12.7484V14.2109L0.150387 14.4781C0.31445 14.825 0.6332 15.1391 0.975387 15.275L1.24257 15.3828H9.84414H18.4457L18.7598 15.2281C19.3879 14.9188 19.641 14.4641 19.641 13.6438C19.641 13.2922 19.6598 13.1469 19.702 13.1328C19.7301 13.1188 20.391 13.0344 21.1645 12.9453C21.9379 12.8516 22.6457 12.7672 22.7348 12.7484C23.3676 12.6359 23.8926 12.0828 23.977 11.4406C24.0051 11.2438 23.7848 9.10156 23.691 8.65156C23.6395 8.39844 23.4754 8.30938 22.9973 8.27656C22.2613 8.22031 21.7926 7.925 21.4973 7.34375C21.2348 6.81875 21.2301 6.34531 21.4738 5.825C21.6941 5.35625 22.1676 4.99063 22.7207 4.85938C23.2129 4.74688 23.227 4.67188 23.0348 3.05469C22.8988 1.93438 22.8566 1.70469 22.7535 1.49375C22.6082 1.19844 22.327 0.912501 22.0316 0.767188C21.6098 0.560939 21.5488 0.565626 12.7738 1.625ZM21.7457 1.69531C21.9332 1.85469 21.966 1.97656 22.0785 2.96094C22.1301 3.425 22.1863 3.84688 22.1957 3.90313C22.2145 3.9875 22.1629 4.02969 21.8629 4.175C21.2207 4.49375 20.7145 5.07031 20.4801 5.75C20.3395 6.15781 20.3301 6.91719 20.4566 7.29688C20.8082 8.33281 21.6191 9.05 22.5988 9.19063C22.852 9.22813 22.8145 9.09219 22.9738 10.4469C23.1332 11.7969 23.1754 11.75 21.4504 11.9656C20.7754 12.05 20.0957 12.1297 19.9363 12.1484L19.641 12.1813V11.75C19.641 11.5156 19.6176 11.2813 19.5941 11.2297C19.5238 11.1031 19.3316 11.0188 19.027 10.9813C18.6473 10.9344 18.2535 10.7281 17.9863 10.4422C17.3535 9.7625 17.3488 8.80156 17.9769 8.10313C18.2348 7.81719 18.5863 7.63906 19.0551 7.55938C19.3551 7.50781 19.4488 7.47031 19.5332 7.37188C19.641 7.24531 19.641 7.23594 19.641 5.82031C19.641 4.49375 19.6363 4.37656 19.5426 4.13281C19.4254 3.81875 19.1019 3.47188 18.7738 3.3125L18.5394 3.19531L13.2895 3.17188C10.4019 3.15781 8.08164 3.13906 8.1332 3.13438C9.01445 3.00313 21.0238 1.5875 21.2676 1.58281C21.5629 1.57813 21.6191 1.59219 21.7457 1.69531ZM14.2973 7.04844V9.9875L14.4238 10.1188C14.677 10.3859 15.1316 10.2406 15.2066 9.87031C15.2207 9.78594 15.2348 8.45938 15.2348 6.91719V4.10938H16.7629C18.0941 4.10938 18.3051 4.11875 18.4223 4.18438C18.6895 4.34375 18.7035 4.41875 18.7035 5.6V6.67813L18.5301 6.71094C18.4363 6.725 18.2301 6.80469 18.0754 6.875C17.3723 7.2125 16.8238 7.89219 16.6363 8.65625C16.552 9.00781 16.5613 9.65 16.6598 9.99219C16.9035 10.8313 17.5973 11.5438 18.4176 11.7969L18.6801 11.8813L18.6941 12.9266C18.7082 14.075 18.6895 14.1688 18.4504 14.3422C18.3098 14.4406 18.2723 14.4453 16.7723 14.4594L15.2348 14.4734V14.0609C15.2348 13.8359 15.2113 13.5688 15.1879 13.475C15.0894 13.1281 14.7144 12.9969 14.452 13.2219C14.3254 13.3297 14.3207 13.3531 14.2973 13.8922L14.2738 14.4453H7.82851C1.69257 14.4453 1.37382 14.4406 1.25195 14.3609C1.17695 14.3141 1.07851 14.2109 1.03164 14.1266C0.947262 13.9906 0.937887 13.8828 0.937887 12.9359V11.9L1.11132 11.8438C2.31133 11.4781 3.09414 10.4609 3.09414 9.26563C3.09414 8.13125 2.30664 7.06719 1.22382 6.73438L0.961325 6.65L0.947262 5.65156C0.942575 5.09844 0.947262 4.59688 0.961325 4.53594C0.980075 4.47031 1.06445 4.34844 1.15351 4.26406L1.31757 4.10938H7.80976H14.2973V7.04844Z" fill="#40AA54"/>
<path d="M7.67315 5.7076C7.62627 5.73573 7.36846 6.20448 7.09658 6.74823C6.82002 7.29667 6.59502 7.74667 6.59033 7.75136C6.58565 7.75604 6.09346 7.83104 5.49346 7.9201C4.55596 8.06073 4.38252 8.09823 4.28877 8.18729C4.15283 8.31386 4.10596 8.50604 4.1669 8.66073C4.19033 8.72636 4.56065 9.12479 4.98721 9.55136L5.76533 10.3201L5.58252 11.3982C5.41846 12.3685 5.4044 12.4904 5.46533 12.631C5.54971 12.8326 5.80752 12.9498 6.00908 12.8795C6.08877 12.8514 6.55283 12.617 7.04033 12.3592L7.93096 11.8904L8.64346 12.2607C9.97471 12.9545 9.92315 12.931 10.0731 12.8982C10.2747 12.856 10.4528 12.6592 10.4528 12.481C10.4528 12.4014 10.3778 11.881 10.2841 11.3279L10.1153 10.3201L10.9169 9.52323C11.7044 8.73573 11.7185 8.72167 11.7185 8.52479C11.7185 8.30448 11.5825 8.11698 11.381 8.07011C11.2825 8.05135 9.36065 7.76542 9.3044 7.76542C9.29033 7.76542 9.06065 7.32479 8.78877 6.78573C8.51221 6.22792 8.2544 5.77323 8.19346 5.73104C8.07627 5.64667 7.79971 5.63261 7.67315 5.7076ZM8.6669 8.53417C8.7419 8.60448 8.95283 8.65604 9.47783 8.73573C9.8669 8.79667 10.195 8.85292 10.2044 8.86229C10.2138 8.87167 9.9794 9.12011 9.68408 9.41073C9.2294 9.86073 9.14033 9.96854 9.14033 10.0857C9.14033 10.1607 9.1919 10.5217 9.25283 10.8826C9.31377 11.2435 9.36065 11.5435 9.35127 11.5529C9.34658 11.5623 9.05596 11.417 8.70908 11.2342C8.32002 11.0326 8.02002 10.906 7.93096 10.906C7.8419 10.906 7.54658 11.0326 7.1669 11.2342C6.82471 11.4123 6.53877 11.5529 6.5294 11.5435C6.52002 11.5342 6.5669 11.2107 6.63252 10.8217C6.72158 10.3014 6.74033 10.0857 6.70283 9.99198C6.6794 9.92636 6.42627 9.64979 6.14033 9.37323C5.8544 9.10136 5.6294 8.86698 5.63877 8.86229C5.64815 8.85292 5.95752 8.80135 6.32783 8.7451C6.70283 8.69354 7.06377 8.61854 7.1294 8.58104C7.22315 8.53417 7.34971 8.33729 7.59815 7.84979L7.93565 7.18417L8.24971 7.81229C8.42315 8.15917 8.61065 8.48729 8.6669 8.53417Z" fill="#40AA54"/>
<path d="M14.4425 11.3562C14.18 11.5765 14.2738 12.0171 14.6066 12.1249C14.93 12.2327 15.2629 11.9281 15.1972 11.5812C15.1363 11.2531 14.7144 11.1265 14.4425 11.3562Z" fill="#40AA54"/>
</svg>
