<svg width="20" height="24" viewBox="0 0 20 24" fill="none" xmlns="http://www.w3.org/2000/svg">
<path d="M0.803125 0.0705128C0.53125 0.168951 0.325 0.351763 0.175 0.61895L0.0390625 0.867388V10.1486V19.4299L0.142188 19.6221C0.198438 19.7252 0.329688 19.8893 0.432813 19.983C0.7375 20.2549 0.957813 20.2971 2.13438 20.2971H3.15625V22.008V23.7236L3.27344 23.8361C3.48906 24.0565 3.59688 24.0096 4.40781 23.358C4.81563 23.0346 5.18125 22.7393 5.22344 22.7018C5.28906 22.6455 5.3875 22.7205 6.03906 23.2971C6.44688 23.658 6.83125 23.9674 6.89219 23.9815C6.95781 24.0002 7.05156 23.9908 7.10781 23.9674C7.16406 23.9393 7.525 23.644 7.90469 23.3018C8.28906 22.9643 8.62188 22.6877 8.64531 22.6877C8.67344 22.6877 9.01562 22.9736 9.40469 23.3205C9.79844 23.6721 10.1688 23.9674 10.2297 23.9861C10.3984 24.0283 10.5625 23.9158 11.3078 23.2502L11.9828 22.6455L12.5453 23.1471C13.4078 23.9205 13.5109 24.0002 13.6563 24.0002C13.7547 24.0002 13.9609 23.8455 14.5516 23.3252L15.3203 22.6502L15.4375 22.7533C15.5031 22.8143 15.8453 23.119 16.2063 23.433C16.9188 24.0565 17.0266 24.1033 17.2422 23.883L17.3594 23.7705V19.3033V14.8361L17.2469 14.5971C17.1203 14.3252 16.8719 14.1002 16.6141 14.0205C16.5063 13.9924 16.075 13.969 15.5359 13.969H14.6406V13.6174C14.6406 13.3033 14.6266 13.2471 14.5234 13.1486C14.3875 13.008 14.1766 12.994 14.0266 13.1205C13.9281 13.2002 13.9141 13.2611 13.9 13.5893L13.8813 13.969L8.12969 13.9783L2.37344 13.9924L2.14375 14.133C2.00313 14.2221 1.8625 14.3627 1.77344 14.5033L1.63281 14.733L1.60938 16.9877C1.59063 18.6283 1.57188 19.2705 1.52969 19.3408C1.44063 19.5002 1.21563 19.5705 1.04688 19.5002C0.742188 19.3736 0.765625 20.0674 0.775 10.0736L0.789062 0.975201L0.920313 0.862701L1.05156 0.7502H7.32813H13.6047L13.7359 0.862701L13.8672 0.975201L13.8906 2.10958C13.9141 3.22989 13.9141 3.24395 14.0266 3.33301C14.1766 3.45489 14.3875 3.44551 14.5234 3.30489L14.6406 3.19239V2.05333C14.6406 1.00801 14.6313 0.895514 14.5422 0.703325C14.425 0.445513 14.2516 0.258013 14.0078 0.126762L13.8203 0.0236378L7.39844 0.0142632C2.03125 0.00957489 0.948438 0.0189514 0.803125 0.0705128ZM3.03906 14.8361L3.15625 14.9486V17.2502V19.5471H2.71563H2.275L2.31719 19.369C2.34063 19.2752 2.35938 18.244 2.35938 17.0815C2.35938 15.0143 2.35938 14.9627 2.45781 14.8408C2.58906 14.6721 2.875 14.6674 3.03906 14.8361ZM16.5016 14.8221L16.6094 14.9205V18.8533V22.7861L16.0469 22.2893C15.2828 21.619 15.3672 21.6096 14.4016 22.458L13.6516 23.119L13.5484 23.0299C12.2125 21.8393 12.1609 21.7971 11.9828 21.7971C11.8234 21.7971 11.7344 21.8627 11.0641 22.458C10.4125 23.044 10.3141 23.1096 10.2484 23.0533C10.2016 23.0205 9.86406 22.7252 9.49375 22.3971C8.58906 21.6002 8.69688 21.5955 7.73125 22.4533C7.32813 22.8143 6.98594 23.1096 6.97656 23.1096C6.96719 23.1096 6.625 22.8143 6.21719 22.4533C5.26562 21.6096 5.35469 21.619 4.53438 22.2893L3.92969 22.7861L3.92031 21.8815C3.91094 21.3846 3.90156 19.5705 3.89688 17.8455L3.88281 14.719H10.1359H16.3938L16.5016 14.8221Z" fill="#40AA54"/>
<path d="M5.54697 16.0781C5.41572 16.2094 5.42509 16.4578 5.56103 16.5844L5.66884 16.6875H8.13447C10.4501 16.6875 10.6001 16.6828 10.6704 16.6031C10.8063 16.4578 10.8157 16.2562 10.7032 16.1109L10.6048 15.9844H8.12041C5.70166 15.9844 5.63603 15.9891 5.54697 16.0781Z" fill="#40AA54"/>
<path d="M12.7658 16.0875C12.6393 16.2281 12.644 16.4578 12.7799 16.5844C12.883 16.6828 12.9299 16.6875 13.8112 16.6875C14.6737 16.6875 14.7393 16.6828 14.8283 16.5938C14.8846 16.5375 14.9221 16.4391 14.9221 16.3359C14.9221 16.2328 14.8846 16.1344 14.8283 16.0781C14.7393 15.9891 14.6737 15.9844 13.7971 15.9844C12.8971 15.9844 12.8596 15.9891 12.7658 16.0875Z" fill="#40AA54"/>
<path d="M5.57031 18.2109C5.49531 18.2812 5.45312 18.3797 5.45312 18.4688C5.45312 18.5578 5.49531 18.6562 5.57031 18.7266L5.68281 18.8438H8.11562C10.4641 18.8438 10.5484 18.8391 10.6422 18.75C10.6984 18.7031 10.7547 18.6141 10.7734 18.5625C10.8203 18.4219 10.7172 18.2109 10.5812 18.1453C10.4969 18.1078 9.75156 18.0938 8.07344 18.0938H5.68281L5.57031 18.2109Z" fill="#40AA54"/>
<path d="M12.7891 18.2109C12.7141 18.2812 12.6719 18.3797 12.6719 18.4688C12.6719 18.5578 12.7141 18.6562 12.7891 18.7266C12.9016 18.8438 12.9109 18.8438 13.7875 18.8438C14.6125 18.8438 14.6828 18.8391 14.8 18.7453C14.8938 18.6703 14.9219 18.6094 14.9219 18.4688C14.9219 18.3281 14.8938 18.2672 14.8 18.1922C14.6828 18.0984 14.6125 18.0938 13.7875 18.0938C12.9109 18.0938 12.9016 18.0938 12.7891 18.2109Z" fill="#40AA54"/>
<path d="M8.04052 2.12368C7.84364 2.33462 7.95145 2.67681 8.22802 2.74243C8.28895 2.7565 8.62177 2.82212 8.96864 2.88306C9.38583 2.96275 9.62489 3.02837 9.67645 3.08462C9.72802 3.13618 9.97645 4.15806 10.3936 6.02368C10.7452 7.59868 11.0311 8.92056 11.0311 8.95806C11.0311 8.99556 10.9608 9.05181 10.8718 9.08462C10.6374 9.169 10.3186 9.47368 10.164 9.75493C9.99052 10.0784 9.94833 10.5987 10.0655 10.9596C10.1733 11.2737 10.4218 11.5924 10.6796 11.7471C10.8436 11.8409 10.914 11.9252 10.9936 12.0987C11.1108 12.3799 11.4624 12.7127 11.7249 12.7877C12.0249 12.8768 12.3858 12.8581 12.653 12.7315C12.8968 12.619 13.2202 12.2909 13.2624 12.1081L13.2905 12.0002H14.3827H15.4749L15.503 12.1081C15.5171 12.1643 15.6061 12.3049 15.7046 12.4174C16.3983 13.2331 17.753 12.8112 17.8608 11.7424C17.9546 10.819 16.9655 10.1206 16.1124 10.519C15.8686 10.6315 15.5452 10.9596 15.503 11.1424L15.4749 11.2502H14.3874H13.3046L13.239 11.1049C12.8874 10.3034 11.7858 10.1674 11.1905 10.8424C11.0124 11.044 10.9936 11.0534 10.928 10.9784C10.7968 10.8284 10.7499 10.6971 10.7499 10.4627C10.7499 10.1956 10.8765 9.97525 11.1202 9.81118L11.2796 9.70337H14.1999C15.8921 9.70337 17.1671 9.68462 17.2327 9.66118C17.2983 9.63306 17.4061 9.51118 17.4905 9.36587C17.8233 8.77056 19.9561 4.57056 19.9749 4.47212C19.989 4.39712 19.9515 4.32212 19.853 4.219L19.7124 4.07837H15.2124H10.7171L10.5952 3.52525C10.4452 2.85493 10.4218 2.77993 10.2577 2.58775C10.0702 2.36275 9.9202 2.30181 9.16552 2.15181C8.31239 1.98775 8.17177 1.98306 8.04052 2.12368ZM18.953 4.86118C18.953 4.90337 16.9374 8.81743 16.8765 8.89712C16.8436 8.93931 16.2952 8.95337 14.3171 8.944L11.8046 8.92993L11.3499 6.91431C11.1015 5.80337 10.8952 4.88462 10.8952 4.86118C10.8905 4.84243 12.7046 4.82837 14.9218 4.82837C17.139 4.82837 18.953 4.84243 18.953 4.86118ZM12.4468 11.2924C12.7702 11.5831 12.564 12.094 12.1233 12.094C11.9686 12.094 11.889 12.0659 11.8046 11.9815C11.3452 11.5221 11.964 10.8612 12.4468 11.2924ZM16.8624 11.2081C16.9796 11.2643 17.1249 11.5034 17.1249 11.6487C17.1249 11.8831 16.8952 12.094 16.6327 12.094C16.1874 12.094 15.9905 11.5971 16.314 11.2784C16.4452 11.1424 16.6608 11.119 16.8624 11.2081Z" fill="#40AA54"/>
<path d="M15.1936 5.70522C15.128 5.78022 14.903 6.09428 14.6874 6.40835C14.4764 6.7271 14.2795 6.98491 14.2561 6.98491C14.2327 6.98491 14.0874 6.8771 13.9327 6.74116C13.6045 6.45522 13.3842 6.41303 13.2295 6.60522C13.0795 6.79272 13.1124 6.98491 13.342 7.20053C13.6655 7.5146 14.1624 7.91303 14.2561 7.94116C14.4624 8.00678 14.5842 7.88491 15.2077 6.97553C15.8733 6.0146 15.9295 5.87866 15.742 5.67241C15.6108 5.5271 15.3436 5.54585 15.1936 5.70522Z" fill="#40AA54"/>
<path d="M2.71094 3.16406C2.63594 3.23438 2.59375 3.33281 2.59375 3.42188C2.59375 3.51094 2.63594 3.60938 2.71094 3.67969L2.82344 3.79688H4.46875H6.11406L6.22656 3.67969C6.30156 3.60938 6.34375 3.51094 6.34375 3.42188C6.34375 3.33281 6.30156 3.23438 6.22656 3.16406L6.11406 3.04688H4.46875H2.82344L2.71094 3.16406Z" fill="#40AA54"/>
<path d="M2.69233 5.325C2.52827 5.53594 2.57046 5.77031 2.78608 5.88281C2.89858 5.94375 3.34858 5.95312 5.69702 5.95312C8.67827 5.95312 8.65483 5.95312 8.76733 5.70937C8.84233 5.56406 8.77202 5.32031 8.64077 5.25C8.58452 5.22187 7.45952 5.20312 5.6689 5.20312H2.78608L2.69233 5.325Z" fill="#40AA54"/>
<path d="M2.80463 7.36875C2.56557 7.49531 2.52338 7.7625 2.71088 7.94531L2.82338 8.0625H5.91713C7.61869 8.0625 9.04369 8.04844 9.08588 8.03437C9.19838 7.9875 9.30151 7.75312 9.26869 7.61719C9.25463 7.55156 9.18432 7.45781 9.12338 7.40625C9.00619 7.31719 8.92651 7.3125 5.94994 7.3125C3.83119 7.31719 2.87026 7.33125 2.80463 7.36875Z" fill="#40AA54"/>
<path d="M2.71115 9.58594C2.57052 9.72187 2.56115 9.93281 2.68302 10.0828L2.77208 10.1953L5.45333 10.2094L8.1299 10.2188L8.27521 10.0781C8.3924 9.95625 8.41115 9.90937 8.38771 9.78281C8.32677 9.45469 8.46271 9.46875 5.49083 9.46875H2.82365L2.71115 9.58594Z" fill="#40AA54"/>
<path d="M2.8752 11.6109C2.58927 11.7188 2.50489 12.0422 2.71583 12.2391L2.8377 12.3516H5.82833H8.81895L8.94083 12.2391C9.10489 12.0844 9.10489 11.8687 8.94083 11.7141L8.81895 11.6016L5.88458 11.5922C4.26739 11.5875 2.9127 11.5969 2.8752 11.6109Z" fill="#40AA54"/>
</svg>
