<svg width="24" height="24" viewBox="0 0 24 24" fill="none" xmlns="http://www.w3.org/2000/svg">
<path d="M6.51109 0.248573C6.03297 0.384512 5.70953 0.661074 5.48922 1.12514L5.36734 1.38295L5.35328 7.29857L5.3439 13.2189H5.14234C4.37359 13.2236 3.34703 13.5236 2.62047 13.9548C2.12828 14.2454 2.02047 14.3439 1.98765 14.5173C1.96422 14.6392 1.98297 14.6908 2.07672 14.7845C2.24547 14.9533 2.39547 14.9392 2.70953 14.7236C4.33609 13.622 6.48297 13.6783 8.06265 14.8642C8.92515 15.5158 9.53453 16.4861 9.78297 17.597C9.87203 18.0048 9.8814 18.947 9.80172 19.3361C9.57672 20.4283 8.99547 21.4079 8.17984 22.0642C7.76734 22.397 6.9564 22.8189 6.49234 22.9408C4.27515 23.5173 1.94078 22.3876 1.08297 20.3204C0.464218 18.8439 0.614218 17.3064 1.50015 15.9329C1.60328 15.7736 1.68765 15.5954 1.68765 15.5439C1.68765 15.3095 1.43453 15.1454 1.20484 15.2298C1.13922 15.2579 0.989218 15.4314 0.848593 15.6564C0.417343 16.322 0.187655 16.9408 0.0704676 17.7189C-0.38422 20.7001 1.72515 23.4329 4.7439 23.7658C5.91109 23.897 7.25172 23.5783 8.1564 22.9501L8.36734 22.8048L15.633 22.7814L22.8986 22.7579L23.1283 22.6454C23.4377 22.4908 23.7002 22.2189 23.8548 21.8954L23.9767 21.6329L23.9908 15.1173C24.0048 8.01576 24.0095 8.17045 23.7377 7.30795C23.5783 6.79232 23.2502 6.15951 22.9173 5.71889C22.5002 5.17045 18.708 1.42045 18.2814 1.1392C17.8267 0.834511 17.4377 0.642324 16.9877 0.487637C16.1533 0.206387 16.3642 0.220449 11.3439 0.206387C7.74859 0.197012 6.67984 0.206387 6.51109 0.248573ZM14.9017 0.942324C15.7548 1.07826 16.5283 1.72514 16.8423 2.5642C16.9361 2.81732 16.9455 2.9392 16.9689 4.42982L16.9923 6.02357L17.1142 6.28607C17.283 6.64232 17.5173 6.89076 17.8455 7.05951L18.1173 7.19545L19.7345 7.21889C21.347 7.24701 21.3517 7.24701 21.6705 7.37357C22.458 7.68295 23.0345 8.34388 23.2267 9.15014C23.3252 9.57201 23.3345 21.3423 23.2314 21.5767C23.1611 21.7501 22.8752 22.0173 22.7205 22.0548C22.6642 22.0689 19.608 22.0736 15.9283 22.0689L9.23453 22.0548L9.51578 21.6798C9.85328 21.2345 10.2283 20.4939 10.3502 20.0392L10.4392 19.7111L13.8705 19.6876L17.3064 19.6642L17.3955 19.5517C17.4986 19.4204 17.5127 19.2283 17.4189 19.097C17.3533 19.0126 17.2502 19.0079 13.9642 18.9845L10.5752 18.9611L10.5658 18.4923C10.5611 18.2345 10.5423 17.9017 10.5236 17.7517L10.4908 17.4845H15.5767C19.2095 17.4845 20.7002 17.4704 20.7798 17.4329C20.897 17.3814 21.0002 17.2126 21.0002 17.0814C21.0002 17.0439 20.9486 16.9595 20.883 16.8986L20.7705 16.7814H15.5158C11.6345 16.7814 10.2658 16.7673 10.2658 16.7298C10.2658 16.6361 9.86265 15.8298 9.68453 15.5673C9.59078 15.4314 9.51578 15.3095 9.51578 15.3001C9.51578 15.2908 12.047 15.2814 15.1361 15.2814C20.4189 15.2814 20.7611 15.2767 20.8548 15.197C20.9064 15.1548 20.9673 15.0517 20.9814 14.9673C21.0048 14.8454 20.9861 14.7939 20.8923 14.7001L20.7705 14.5783H14.808H8.85015L8.47984 14.297C7.86578 13.8376 7.05015 13.4814 6.17828 13.2939L6.04703 13.2658V7.46264C6.04703 3.57201 6.06578 1.60795 6.09859 1.48607C6.15484 1.27045 6.41734 1.00326 6.62359 0.942324C6.83922 0.881386 14.5173 0.876699 14.9017 0.942324ZM17.3533 1.41107C17.5173 1.49076 17.7752 1.64545 17.9298 1.74857C18.2345 1.95014 21.8908 5.55482 22.2658 6.02357C22.533 6.36107 22.7861 6.78295 22.922 7.12045C23.0252 7.38763 23.0205 7.38763 22.6923 7.13451C22.4298 6.93764 22.0877 6.7642 21.7267 6.64232C21.4736 6.55795 21.2767 6.54388 19.8517 6.52045C18.0564 6.48763 18.0611 6.48763 17.822 6.13139L17.6955 5.9392L17.6673 4.34076C17.6439 2.98139 17.6298 2.70482 17.5595 2.48451C17.4423 2.13295 17.222 1.7017 17.0439 1.4767C16.8142 1.19076 16.8048 1.16264 16.9408 1.2142C17.0017 1.24232 17.1892 1.3267 17.3533 1.41107Z" fill="#40AA54"/>
<path d="M7.56067 3.00036C7.34973 3.08473 7.30286 3.33786 7.45286 3.53005C7.53723 3.63786 7.58879 3.65192 7.86536 3.66598L8.17942 3.68005L8.19348 5.07223L8.20285 6.46442L8.32473 6.55817C8.54035 6.72692 8.76067 6.6613 8.8591 6.40348C8.88723 6.3238 8.90598 5.75661 8.90598 4.96442V3.65661H9.20129C9.44973 3.65661 9.51535 3.63786 9.59973 3.5488C9.73567 3.40348 9.73098 3.2113 9.58567 3.07067C9.47317 2.95348 9.46848 2.95348 8.56848 2.95817C8.07161 2.95817 7.61692 2.97692 7.56067 3.00036Z" fill="#40AA54"/>
<path d="M10.7764 3.01866C10.6311 3.10303 10.6592 3.03741 9.97951 4.81866C9.46857 6.16866 9.42169 6.30928 9.47326 6.43116C9.57169 6.66553 9.79201 6.72178 9.99357 6.56241C10.0592 6.51553 10.1576 6.34678 10.2139 6.18741L10.317 5.90147L10.9779 5.91553L11.6342 5.9296L11.7373 6.20616C11.892 6.61397 12.117 6.7546 12.3608 6.58585C12.567 6.44053 12.5436 6.35616 11.9295 4.72491C11.6061 3.8671 11.3061 3.12647 11.2592 3.08428C11.1467 2.97178 10.9217 2.93897 10.7764 3.01866ZM11.3154 5.09522C11.3483 5.20303 11.3436 5.20303 10.9733 5.20303C10.7623 5.20303 10.5936 5.19835 10.5936 5.18897C10.5936 5.1796 10.7436 4.78116 10.9311 4.31241C10.9733 4.2046 10.9873 4.22803 11.1279 4.59366C11.2123 4.81397 11.2967 5.03897 11.3154 5.09522Z" fill="#40AA54"/>
<path d="M13.1344 3C12.9891 3.06094 12.9094 3.25312 12.9656 3.4125C12.9938 3.48281 13.2 3.79688 13.425 4.11562C13.6688 4.4625 13.8188 4.71094 13.8 4.74844C13.7813 4.77656 13.5469 5.11406 13.2797 5.48906C12.9609 5.94375 12.7969 6.22031 12.7969 6.3C12.7969 6.45 12.9891 6.65625 13.125 6.65625C13.3031 6.65625 13.3828 6.57656 13.8 5.98125C14.025 5.65781 14.2266 5.38125 14.25 5.36719C14.2734 5.35312 14.4844 5.61562 14.7188 5.95312C15.15 6.56719 15.2391 6.65625 15.4219 6.65625C15.5531 6.65625 15.75 6.45469 15.75 6.31406C15.75 6.24375 15.5484 5.91094 15.2297 5.46094C14.9438 5.05781 14.7234 4.70156 14.7328 4.67344C14.7469 4.64062 14.9484 4.34531 15.1828 4.0125C15.4172 3.67969 15.6094 3.37969 15.6094 3.34687C15.6094 3.10312 15.3234 2.89687 15.1219 2.99062C15.0656 3.01406 14.8594 3.25781 14.6719 3.525C14.4844 3.7875 14.3156 4.02656 14.2969 4.04531C14.2781 4.06875 14.0906 3.84375 13.8844 3.54844C13.4719 2.96719 13.3828 2.90156 13.1344 3Z" fill="#40AA54"/>
<path d="M10.9506 10.2703C10.7959 10.3922 10.7818 10.6406 10.9224 10.7812C11.0162 10.875 11.0771 10.875 15.9099 10.875H20.8084L20.9021 10.7531C20.9584 10.6828 21.0006 10.5984 21.0006 10.5656C21.0006 10.4437 20.8928 10.275 20.7803 10.2234C20.7006 10.1859 19.2849 10.1719 15.8724 10.1719C11.0912 10.1719 11.0771 10.1719 10.9506 10.2703Z" fill="#40AA54"/>
<path d="M8.54555 12.4312C8.32993 12.5344 8.33461 12.9656 8.55493 13.05C8.59711 13.0641 10.7346 13.0781 13.308 13.0781H17.9862L18.0846 12.9703C18.2299 12.8156 18.2205 12.5953 18.0659 12.4734C17.9393 12.375 17.9252 12.375 13.294 12.3797C10.1206 12.3797 8.61586 12.3984 8.54555 12.4312Z" fill="#40AA54"/>
<path d="M19.0971 12.4219C18.8721 12.5109 18.8533 12.9141 19.0736 13.0266C19.1299 13.0594 19.4908 13.0781 19.9689 13.0781C20.7658 13.0781 20.7705 13.0781 20.8924 12.9562C20.9861 12.8625 21.0049 12.8109 20.9814 12.6891C20.9252 12.3984 20.8455 12.375 19.9736 12.3797C19.5471 12.3797 19.1533 12.3984 19.0971 12.4219Z" fill="#40AA54"/>
<path d="M7.06437 16.0409C7.00812 16.1018 6.46906 17.1237 5.86906 18.319C5.26906 19.5096 4.76281 20.4846 4.74406 20.4846C4.72531 20.4846 4.30812 20.0815 3.82062 19.594C2.85031 18.6237 2.78937 18.5862 2.555 18.8206C2.31594 19.0549 2.34406 19.0971 3.54875 20.3018C4.15812 20.9159 4.70656 21.4268 4.7675 21.4456C5.03937 21.5112 5.05812 21.4831 6.38 18.8674C7.07375 17.4987 7.64094 16.3362 7.64094 16.2753C7.64094 16.1299 7.43937 15.9378 7.28937 15.9378C7.22375 15.9378 7.12062 15.9846 7.06437 16.0409Z" fill="#40AA54"/>
</svg>
