<svg width="25" height="24" viewBox="0 0 25 24" fill="none" xmlns="http://www.w3.org/2000/svg">
<path d="M9.5 14L15.5 8M10 8.5H10.01M15 13.5H15.01M19.5 21V5C19.5 4.46957 19.2893 3.96086 18.9142 3.58579C18.5391 3.21071 18.0304 3 17.5 3H7.5C6.96957 3 6.46086 3.21071 6.08579 3.58579C5.71071 3.96086 5.5 4.46957 5.5 5V21L9 19L12.5 21L16 19L19.5 21ZM10.5 8.5C10.5 8.63261 10.4473 8.75979 10.3536 8.85355C10.2598 8.94732 10.1326 9 10 9C9.86739 9 9.74021 8.94732 9.64645 8.85355C9.55268 8.75979 9.5 8.63261 9.5 8.5C9.5 8.36739 9.55268 8.24021 9.64645 8.14645C9.74021 8.05268 9.86739 8 10 8C10.1326 8 10.2598 8.05268 10.3536 8.14645C10.4473 8.24021 10.5 8.36739 10.5 8.5ZM15.5 13.5C15.5 13.6326 15.4473 13.7598 15.3536 13.8536C15.2598 13.9473 15.1326 14 15 14C14.8674 14 14.7402 13.9473 14.6464 13.8536C14.5527 13.7598 14.5 13.6326 14.5 13.5C14.5 13.3674 14.5527 13.2402 14.6464 13.1464C14.7402 13.0527 14.8674 13 15 13C15.1326 13 15.2598 13.0527 15.3536 13.1464C15.4473 13.2402 15.5 13.3674 15.5 13.5Z" stroke="#40AA54" stroke-width="1.5" stroke-linecap="round" stroke-linejoin="round"/>
</svg>
