<svg width="25" height="24" viewBox="0 0 25 24" fill="none" xmlns="http://www.w3.org/2000/svg">
<path d="M6.5 20C5.66667 20 4.95833 19.7083 4.375 19.125C3.79167 18.5417 3.5 17.8333 3.5 17C2.95 17 2.479 16.804 2.087 16.412C1.695 16.02 1.49934 15.5493 1.5 15V6C1.5 5.45 1.696 4.979 2.088 4.587C2.48 4.195 2.95067 3.99934 3.5 4H15.5C16.05 4 16.521 4.196 16.913 4.588C17.305 4.98 17.5007 5.45067 17.5 6V8H20C20.1667 8 20.3167 8.03334 20.45 8.1C20.5833 8.16667 20.7 8.26667 20.8 8.4L23.3 11.725C23.3667 11.8083 23.4167 11.9 23.45 12C23.4833 12.1 23.5 12.2083 23.5 12.325V16C23.5 16.2833 23.404 16.521 23.212 16.713C23.02 16.905 22.7827 17.0007 22.5 17H21.5C21.5 17.8333 21.2083 18.5417 20.625 19.125C20.0417 19.7083 19.3333 20 18.5 20C17.6667 20 16.9583 19.7083 16.375 19.125C15.7917 18.5417 15.5 17.8333 15.5 17H9.5C9.5 17.8333 9.20834 18.5417 8.625 19.125C8.04167 19.7083 7.33334 20 6.5 20ZM6.5 18C6.78334 18 7.021 17.904 7.213 17.712C7.405 17.52 7.50067 17.2827 7.5 17C7.5 16.7167 7.404 16.479 7.212 16.287C7.02 16.095 6.78267 15.9993 6.5 16C6.21667 16 5.979 16.096 5.787 16.288C5.595 16.48 5.49934 16.7173 5.5 17C5.5 17.2833 5.596 17.521 5.788 17.713C5.98 17.905 6.21734 18.0007 6.5 18ZM3.5 6V15H4.3C4.58333 14.7 4.90834 14.4583 5.275 14.275C5.64167 14.0917 6.05 14 6.5 14C6.95 14 7.35834 14.0917 7.725 14.275C8.09167 14.4583 8.41667 14.7 8.7 15H15.5V6H3.5ZM18.5 18C18.7833 18 19.021 17.904 19.213 17.712C19.405 17.52 19.5007 17.2827 19.5 17C19.5 16.7167 19.404 16.479 19.212 16.287C19.02 16.095 18.7827 15.9993 18.5 16C18.2167 16 17.979 16.096 17.787 16.288C17.595 16.48 17.4993 16.7173 17.5 17C17.5 17.2833 17.596 17.521 17.788 17.713C17.98 17.905 18.2173 18.0007 18.5 18ZM17.5 13H21.75L19.5 10H17.5V13Z" fill="white"/>
</svg>
