<svg width="18" height="20" viewBox="0 0 18 20" fill="none" xmlns="http://www.w3.org/2000/svg">
<path fill-rule="evenodd" clip-rule="evenodd" d="M5.89318 3.79011C5.95984 3.32468 6.10206 3.06798 6.30356 2.89527C6.63888 2.60786 7.36334 2.3499 9.00039 2.3499C10.6374 2.3499 11.3619 2.60786 11.6972 2.89527C11.899 3.06826 12.0414 3.32549 12.1079 3.79231C11.2017 3.68934 10.169 3.6499 9.00039 3.6499C7.83039 3.6499 6.79814 3.68947 5.89318 3.79011ZM4.15928 4.10308C4.20322 3.17755 4.42709 2.26464 5.19722 1.60453C6.02857 0.891946 7.30411 0.649902 9.00039 0.649902C10.6967 0.649902 11.9722 0.891946 12.8036 1.60453C13.5767 2.2672 13.7993 3.18464 13.842 4.11385C14.7276 4.36083 15.478 4.7341 16.0808 5.2976C17.2618 6.40148 17.6882 8.05934 17.8095 10.2388C17.8361 10.3211 17.8504 10.4088 17.8504 10.4999C17.8504 10.6576 17.8473 10.8168 17.8391 10.9765C17.847 11.2792 17.8504 11.591 17.8504 11.9117C17.8504 14.3465 17.5325 16.3445 16.0667 17.654C14.6397 18.9289 12.3378 19.3499 9.00039 19.3499C7.31557 19.3499 5.9164 19.2679 4.77163 19.0395C3.62261 18.8104 2.67061 18.4226 1.93507 17.7675C0.455645 16.4499 0.150391 14.3221 0.150391 11.4999C0.150391 11.2797 0.152249 11.0638 0.156377 10.8521C0.15213 10.7342 0.150391 10.6166 0.150391 10.4999C0.150391 10.433 0.158123 10.3679 0.172744 10.3054C0.264932 8.07204 0.672228 6.35705 1.93507 5.23234C2.53568 4.69742 3.2806 4.34072 4.15928 4.10308ZM1.85739 10.8409C1.91133 8.41913 2.28007 7.20156 3.06572 6.50184C3.49683 6.11787 4.12817 5.82209 5.10415 5.62743C6.08438 5.43192 7.35187 5.3499 9.00039 5.3499C10.6497 5.3499 11.9146 5.43206 12.8918 5.63288C13.8627 5.8324 14.4896 6.13726 14.92 6.53952C15.6921 7.26126 16.065 8.51508 16.1372 10.9589C16.114 11.3252 16.059 11.6212 15.9617 11.8694C15.8374 12.1867 15.6286 12.4657 15.2266 12.7151C14.3438 13.2629 12.5696 13.6499 9.00643 13.6499C5.44362 13.6499 3.66562 13.263 2.77934 12.7146C2.37542 12.4647 2.1654 12.185 2.04035 11.8678C1.93234 11.5939 1.87591 11.2616 1.85739 10.8409ZM15.983 14.2429C15.8018 15.2422 15.4651 15.9118 14.9341 16.3862C14.0278 17.1959 12.3297 17.6499 9.00039 17.6499C7.35187 17.6499 6.08438 17.5679 5.10415 17.3724C4.12817 17.1777 3.49683 16.8819 3.06572 16.498C2.54809 16.037 2.21144 15.3512 2.02656 14.2443C3.3761 15.0115 5.56879 15.3499 9.00643 15.3499C12.4451 15.3499 14.6361 15.0113 15.983 14.2429ZM6.15039 11.4999C6.15039 11.0305 6.53095 10.6499 7.00039 10.6499H11.0004C11.4698 10.6499 11.8504 11.0305 11.8504 11.4999C11.8504 11.9693 11.4698 12.3499 11.0004 12.3499L7.00039 12.3499C6.53095 12.3499 6.15039 11.9693 6.15039 11.4999Z" fill="#40AA54"/>
</svg>
