<svg width="21" height="20" viewBox="0 0 21 20" fill="none" xmlns="http://www.w3.org/2000/svg">
<path fill-rule="evenodd" clip-rule="evenodd" d="M2.3499 9.9999C2.3499 5.49878 5.99878 1.8499 10.4999 1.8499C11.3908 1.8499 12.2467 1.99254 13.047 2.25558C13.493 2.40216 13.9733 2.15946 14.1199 1.71349C14.2665 1.26752 14.0238 0.787161 13.5778 0.640578C12.6084 0.321933 11.5734 0.149902 10.4999 0.149902C5.0599 0.149902 0.649902 4.5599 0.649902 9.9999C0.649902 15.4399 5.0599 19.8499 10.4999 19.8499C15.9399 19.8499 20.3499 15.4399 20.3499 9.9999C20.3499 9.53046 19.9693 9.1499 19.4999 9.1499C19.0305 9.1499 18.6499 9.53046 18.6499 9.9999C18.6499 14.501 15.001 18.1499 10.4999 18.1499C5.99878 18.1499 2.3499 14.501 2.3499 9.9999ZM18.1022 5.59964C18.4335 5.26697 18.4323 4.72878 18.0996 4.39756C17.767 4.06633 17.2288 4.0675 16.8976 4.40017L10.5495 10.7758L8.12083 8.17795C7.80024 7.83502 7.26236 7.81691 6.91943 8.1375C6.5765 8.45809 6.55839 8.99597 6.87898 9.3389L9.90928 12.5804C10.0668 12.7489 10.2861 12.8462 10.5168 12.8498C10.7475 12.8534 10.9698 12.7631 11.1325 12.5996L18.1022 5.59964Z" fill="white"/>
</svg>
