<svg width="20" height="21" viewBox="0 0 20 21" fill="none" xmlns="http://www.w3.org/2000/svg">
<path fill-rule="evenodd" clip-rule="evenodd" d="M1.85039 10.4999C1.85039 5.99878 5.49927 2.3499 10.0004 2.3499C10.8913 2.3499 11.7472 2.49254 12.5475 2.75558C12.9934 2.90216 13.4738 2.65946 13.6204 2.21349C13.767 1.76752 13.5243 1.28716 13.0783 1.14058C12.1088 0.821933 11.0739 0.649902 10.0004 0.649902C4.56039 0.649902 0.150391 5.0599 0.150391 10.4999C0.150391 15.9399 4.56039 20.3499 10.0004 20.3499C15.4404 20.3499 19.8504 15.9399 19.8504 10.4999C19.8504 10.0305 19.4698 9.6499 19.0004 9.6499C18.5309 9.6499 18.1504 10.0305 18.1504 10.4999C18.1504 15.001 14.5015 18.6499 10.0004 18.6499C5.49927 18.6499 1.85039 15.001 1.85039 10.4999ZM17.6027 6.09964C17.934 5.76697 17.9328 5.22878 17.6001 4.89756C17.2675 4.56633 16.7293 4.5675 16.398 4.90017L10.05 11.2758L7.62132 8.67795C7.30073 8.33502 6.76284 8.31691 6.41992 8.6375C6.07699 8.95809 6.05888 9.49597 6.37946 9.8389L9.40977 13.0804C9.56733 13.2489 9.78662 13.3462 10.0173 13.3498C10.248 13.3534 10.4703 13.2631 10.633 13.0996L17.6027 6.09964Z" fill="#40AA54"/>
</svg>
