<svg width="24" height="24" viewBox="0 0 24 24" fill="none" xmlns="http://www.w3.org/2000/svg">
<path d="M7.71416 7.71408V5.14265C7.71416 4.00601 8.16569 2.91592 8.96942 2.11219C9.77315 1.30846 10.8632 0.856934 11.9999 0.856934C13.1365 0.856934 14.2266 1.30846 15.0303 2.11219C15.8341 2.91592 16.2856 4.00601 16.2856 5.14265V7.71408M22.0799 21.2398C22.1069 21.4803 22.0826 21.7238 22.0088 21.9543C21.9349 22.1847 21.8131 22.3969 21.6513 22.5769C21.4891 22.7567 21.2907 22.9 21.0691 22.9975C20.8474 23.095 20.6077 23.1445 20.3656 23.1426H3.63416C3.39206 23.1445 3.15231 23.095 2.93071 22.9975C2.7091 22.9 2.51066 22.7567 2.34845 22.5769C2.18668 22.3969 2.06485 22.1847 1.99098 21.9543C1.91711 21.7238 1.89288 21.4803 1.91988 21.2398L3.42845 7.71408H20.5713L22.0799 21.2398Z" stroke="#40AA54" stroke-width="1.5" stroke-linecap="round" stroke-linejoin="round"/>
</svg>
