<svg width="23" height="16" viewBox="0 0 23 16" fill="none" xmlns="http://www.w3.org/2000/svg">
<path d="M5.5 16C4.66667 16 3.95833 15.7083 3.375 15.125C2.79167 14.5417 2.5 13.8333 2.5 13C1.95 13 1.479 12.804 1.087 12.412C0.695002 12.02 0.499335 11.5493 0.500002 11V2C0.500002 1.45 0.696002 0.979002 1.088 0.587002C1.48 0.195002 1.95067 -0.000664969 2.5 1.69779e-06H14.5C15.05 1.69779e-06 15.521 0.196001 15.913 0.588001C16.305 0.980001 16.5007 1.45067 16.5 2V4H19C19.1667 4 19.3167 4.03334 19.45 4.1C19.5833 4.16667 19.7 4.26667 19.8 4.4L22.3 7.725C22.3667 7.80834 22.4167 7.9 22.45 8C22.4833 8.1 22.5 8.20833 22.5 8.325V12C22.5 12.2833 22.404 12.521 22.212 12.713C22.02 12.905 21.7827 13.0007 21.5 13H20.5C20.5 13.8333 20.2083 14.5417 19.625 15.125C19.0417 15.7083 18.3333 16 17.5 16C16.6667 16 15.9583 15.7083 15.375 15.125C14.7917 14.5417 14.5 13.8333 14.5 13H8.5C8.5 13.8333 8.20834 14.5417 7.625 15.125C7.04167 15.7083 6.33334 16 5.5 16ZM5.5 14C5.78334 14 6.021 13.904 6.213 13.712C6.405 13.52 6.50067 13.2827 6.5 13C6.5 12.7167 6.404 12.479 6.212 12.287C6.02 12.095 5.78267 11.9993 5.5 12C5.21667 12 4.979 12.096 4.787 12.288C4.595 12.48 4.49934 12.7173 4.5 13C4.5 13.2833 4.596 13.521 4.788 13.713C4.98 13.905 5.21734 14.0007 5.5 14ZM2.5 2V11H3.3C3.58333 10.7 3.90834 10.4583 4.275 10.275C4.64167 10.0917 5.05 10 5.5 10C5.95 10 6.35834 10.0917 6.725 10.275C7.09167 10.4583 7.41667 10.7 7.7 11H14.5V2H2.5ZM17.5 14C17.7833 14 18.021 13.904 18.213 13.712C18.405 13.52 18.5007 13.2827 18.5 13C18.5 12.7167 18.404 12.479 18.212 12.287C18.02 12.095 17.7827 11.9993 17.5 12C17.2167 12 16.979 12.096 16.787 12.288C16.595 12.48 16.4993 12.7173 16.5 13C16.5 13.2833 16.596 13.521 16.788 13.713C16.98 13.905 17.2173 14.0007 17.5 14ZM16.5 9H20.75L18.5 6H16.5V9Z" fill="white"/>
</svg>
