<svg width="22" height="24" viewBox="0 0 22 24" fill="none" xmlns="http://www.w3.org/2000/svg">
<path d="M6.71416 7.71456V5.14314C6.71416 4.00649 7.16569 2.91641 7.96942 2.11268C8.77315 1.30895 9.86324 0.857422 10.9999 0.857422C12.1365 0.857422 13.2266 1.30895 14.0303 2.11268C14.8341 2.91641 15.2856 4.00649 15.2856 5.14314V7.71456M21.0799 21.2403C21.1069 21.4808 21.0826 21.7243 21.0088 21.9547C20.9349 22.1852 20.8131 22.3974 20.6513 22.5774C20.4891 22.7572 20.2907 22.9005 20.0691 22.998C19.8474 23.0955 19.6077 23.145 19.3656 23.1431H2.63416C2.39206 23.145 2.15231 23.0955 1.93071 22.998C1.7091 22.9005 1.51066 22.7572 1.34845 22.5774C1.18668 22.3974 1.06485 22.1852 0.990982 21.9547C0.917114 21.7243 0.892882 21.4808 0.919879 21.2403L2.42845 7.71456H19.5713L21.0799 21.2403Z" stroke="white" stroke-width="1.5" stroke-linecap="round" stroke-linejoin="round"/>
</svg>
